<mxfile host="app.diagrams.net" modified="2022-11-11T14:57:47.553Z" agent="5.0 (Macintosh; Intel Mac OS X 10_14_6) AppleWebKit/537.36 (KHTML, like Gecko) Chrome/106.0.0.0 Safari/537.36" etag="2OC2UqvqpEriiomZnKKo" version="20.4.1" type="github">
  <diagram id="_W3qOhf7wT0anMJRdY4h" name="第 1 页">
    <mxGraphModel dx="946" dy="534" grid="1" gridSize="10" guides="1" tooltips="1" connect="1" arrows="1" fold="1" page="1" pageScale="1" pageWidth="827" pageHeight="1169" math="0" shadow="0">
      <root>
        <mxCell id="0" />
        <mxCell id="1" parent="0" />
        <mxCell id="JCWrwl4TRerH-X1jaqIa-2" value="可见" style="rounded=1;whiteSpace=wrap;html=1;strokeWidth=2;fillWeight=4;hachureGap=8;hachureAngle=45;fillColor=#b0e3e6;sketch=1;strokeColor=#0e8088;fontSize=15;fontStyle=1" vertex="1" parent="1">
          <mxGeometry x="80" y="120" width="200" height="60" as="geometry" />
        </mxCell>
        <mxCell id="JCWrwl4TRerH-X1jaqIa-3" value="不可见" style="rounded=1;whiteSpace=wrap;html=1;strokeWidth=2;fillWeight=4;hachureGap=8;hachureAngle=45;fillColor=#b1ddf0;sketch=1;strokeColor=#10739e;fontSize=15;fontStyle=1" vertex="1" parent="1">
          <mxGeometry x="280" y="120" width="240" height="60" as="geometry" />
        </mxCell>
        <mxCell id="JCWrwl4TRerH-X1jaqIa-4" value="不可见" style="rounded=1;whiteSpace=wrap;html=1;strokeWidth=2;fillWeight=4;hachureGap=8;hachureAngle=45;fillColor=#fad9d5;sketch=1;strokeColor=#ae4132;fontSize=15;fontStyle=1" vertex="1" parent="1">
          <mxGeometry x="600" y="120" width="290" height="60" as="geometry" />
        </mxCell>
        <mxCell id="JCWrwl4TRerH-X1jaqIa-13" value="" style="shape=curlyBracket;whiteSpace=wrap;html=1;rounded=1;fontSize=15;rotation=-90;strokeWidth=2;" vertex="1" parent="1">
          <mxGeometry x="170" y="120" width="20" height="180" as="geometry" />
        </mxCell>
        <mxCell id="JCWrwl4TRerH-X1jaqIa-14" value="" style="shape=curlyBracket;whiteSpace=wrap;html=1;rounded=1;fontSize=15;rotation=-90;strokeWidth=2;" vertex="1" parent="1">
          <mxGeometry x="383.75" y="113.75" width="20" height="192.5" as="geometry" />
        </mxCell>
        <mxCell id="JCWrwl4TRerH-X1jaqIa-15" value="" style="endArrow=classic;html=1;strokeWidth=3;rounded=1;jumpStyle=arc;endSize=6;jumpSize=9;sketch=1;shadow=1;fillColor=#fad9d5;strokeColor=#ae4132;" edge="1" parent="1">
          <mxGeometry width="50" height="50" relative="1" as="geometry">
            <mxPoint x="519" y="280" as="sourcePoint" />
            <mxPoint x="519" y="190" as="targetPoint" />
          </mxGeometry>
        </mxCell>
        <mxCell id="JCWrwl4TRerH-X1jaqIa-16" value="在这里开始的事务" style="text;html=1;align=center;verticalAlign=middle;resizable=0;points=[];autosize=1;strokeColor=none;fillColor=none;fontSize=15;fontStyle=1" vertex="1" parent="1">
          <mxGeometry x="450" y="290" width="140" height="30" as="geometry" />
        </mxCell>
        <mxCell id="JCWrwl4TRerH-X1jaqIa-17" value="&lt;span style=&quot;color: rgb(0, 0, 0);&quot;&gt;&lt;b style=&quot;&quot;&gt;&lt;font style=&quot;font-size: 15px;&quot;&gt;开启事务的那一刻&lt;br&gt;已经提交的&lt;/font&gt;&lt;/b&gt;&lt;/span&gt;" style="text;html=1;align=center;verticalAlign=middle;resizable=0;points=[];autosize=1;strokeColor=none;fillColor=none;fontSize=15;fontColor=#33FFFF;" vertex="1" parent="1">
          <mxGeometry x="110" y="215" width="140" height="50" as="geometry" />
        </mxCell>
        <mxCell id="JCWrwl4TRerH-X1jaqIa-19" value="在开启事务的那一刻&lt;br&gt;未提交的事务" style="text;html=1;align=center;verticalAlign=middle;resizable=0;points=[];autosize=1;strokeColor=none;fillColor=none;fontSize=15;fontColor=#000000;fontStyle=1" vertex="1" parent="1">
          <mxGeometry x="310" y="215" width="160" height="50" as="geometry" />
        </mxCell>
        <mxCell id="JCWrwl4TRerH-X1jaqIa-21" value="" style="shape=curlyBracket;whiteSpace=wrap;html=1;rounded=1;fontSize=15;fontColor=#000000;rotation=-90;strokeWidth=2;" vertex="1" parent="1">
          <mxGeometry x="735" y="85" width="20" height="250" as="geometry" />
        </mxCell>
        <mxCell id="JCWrwl4TRerH-X1jaqIa-22" value="在开启事务的那一刻&lt;br&gt;未开始的事务" style="text;html=1;align=center;verticalAlign=middle;resizable=0;points=[];autosize=1;strokeColor=none;fillColor=none;fontSize=15;fontColor=#000000;fontStyle=1" vertex="1" parent="1">
          <mxGeometry x="667" y="225" width="160" height="50" as="geometry" />
        </mxCell>
        <mxCell id="JCWrwl4TRerH-X1jaqIa-23" value="可见" style="rounded=1;whiteSpace=wrap;html=1;strokeWidth=2;fillWeight=4;hachureGap=8;hachureAngle=45;fillColor=#fad7ac;sketch=1;fontSize=15;strokeColor=#b46504;fontStyle=1" vertex="1" parent="1">
          <mxGeometry x="520" y="120" width="80" height="60" as="geometry" />
        </mxCell>
        <mxCell id="JCWrwl4TRerH-X1jaqIa-24" value="" style="shape=curlyBracket;whiteSpace=wrap;html=1;rounded=1;strokeWidth=2;fontSize=15;fontColor=#000000;rotation=-90;" vertex="1" parent="1">
          <mxGeometry x="553.75" y="183.75" width="20" height="52.5" as="geometry" />
        </mxCell>
        <mxCell id="JCWrwl4TRerH-X1jaqIa-25" value="自己" style="text;html=1;align=center;verticalAlign=middle;resizable=0;points=[];autosize=1;strokeColor=none;fillColor=none;fontSize=15;fontColor=#000000;fontStyle=1" vertex="1" parent="1">
          <mxGeometry x="545" y="230" width="50" height="30" as="geometry" />
        </mxCell>
      </root>
    </mxGraphModel>
  </diagram>
</mxfile>
